shantell--light_bounce.ufo
<glyph name="dollar" format="2">
	<unicode hex="0024"/>
	<advance width="561"/>
	<outline>
		<contour>
			<point x="162" y="84.7899068263" type="curve" smooth="yes"/>
			<point x="332" y="84.7899068263"/>
			<point x="496" y="142.7899068263"/>
			<point x="496" y="260.7899068263" type="curve" smooth="yes"/>
			<point x="496" y="434.7899068263"/>
			<point x="136" y="431.809827145"/>
			<point x="136" y="514.7899068263" type="curve" smooth="yes"/>
			<point x="136" y="605.5466635831"/>
			<point x="250.1039809432" y="692.8103050018"/>
			<point x="459" y="733.7899068263" type="curve" smooth="yes"/>
			<point x="493" y="739.7899068263"/>
			<point x="504" y="751.7899068263"/>
			<point x="504" y="770.7899068263" type="curve" smooth="yes"/>
			<point x="504" y="791.7899068263"/>
			<point x="490" y="803.7899068263"/>
			<point x="461" y="803.7899068263" type="curve" smooth="yes"/>
			<point x="338" y="803.7899068263"/>
			<point x="67" y="682.7899068263"/>
			<point x="67" y="508.7899068263" type="curve" smooth="yes"/>
			<point x="67" y="363.6470496834"/>
			<point x="424" y="386.7899068263"/>
			<point x="425" y="254.7899068263" type="curve"/>
			<point x="396" y="182.7899068263"/>
			<point x="290" y="152.7899068263"/>
			<point x="154" y="152.7899068263" type="curve" smooth="yes"/>
			<point x="108" y="152.7899068263"/>
			<point x="100" y="162.7899068263"/>
			<point x="72" y="162.7899068263" type="curve" smooth="yes"/>
			<point x="52" y="162.7899068263"/>
			<point x="43" y="153.7899068263"/>
			<point x="43" y="137.7899068263" type="curve" smooth="yes"/>
			<point x="43" y="106.7899068263"/>
			<point x="82" y="84.7899068263"/>
		</contour>
		<contour>
			<point x="306" y="488.7899068263" type="curve" smooth="yes"/>
			<point x="321" y="488.7899068263"/>
			<point x="327" y="498.7899068263"/>
			<point x="330" y="514.7899068263" type="curve" smooth="yes"/>
			<point x="347.459328987" y="613.3837646354"/>
			<point x="352.6673255295" y="761.6134373059"/>
			<point x="327" y="883.7899068263" type="curve" smooth="yes"/>
			<point x="324" y="899.7899068263"/>
			<point x="312" y="910.7899068263"/>
			<point x="293" y="910.7899068263" type="curve" smooth="yes"/>
			<point x="258" y="910.7899068263"/>
			<point x="255" y="891.7899068263"/>
			<point x="260" y="870.7899068263" type="curve" smooth="yes"/>
			<point x="284.723779232" y="756.4424278785"/>
			<point x="276.3714278106" y="632.4518061357"/>
			<point x="264" y="543.7899068263" type="curve" smooth="yes"/>
			<point x="260" y="506.7899068263"/>
			<point x="285" y="488.7899068263"/>
		</contour>
		<contour>
			<point x="252" y="310.7899068263" type="curve" smooth="yes"/>
			<point x="237" y="310.7899068263"/>
			<point x="231" y="300.7899068263"/>
			<point x="228" y="284.7899068263" type="curve" smooth="yes"/>
			<point x="212.3755149601" y="196.5575207187"/>
			<point x="207.9969884337" y="65.2842418821"/>
			<point x="231" y="-44.2100931737" type="curve" smooth="yes"/>
			<point x="234" y="-60.2100931737"/>
			<point x="245" y="-71.2100931737"/>
			<point x="265" y="-71.2100931737" type="curve" smooth="yes"/>
			<point x="299" y="-71.2100931737"/>
			<point x="303" y="-52.2100931737"/>
			<point x="298" y="-31.2100931737" type="curve" smooth="yes"/>
			<point x="276.1648130799" y="69.7776463319"/>
			<point x="283.1128483073" y="177.7653196953"/>
			<point x="294" y="255.7899068263" type="curve" smooth="yes"/>
			<point x="298" y="292.7899068263"/>
			<point x="273" y="310.7899068263"/>
		</contour>
	</outline>
</glyph>
<glyph name="ampersand" format="2">
	<unicode hex="0026"/>
	<advance width="600"/>
	<outline>
		<contour>
			<point x="451" y="465.9126643614"/>
			<point x="415" y="527.9126643614"/>
			<point x="290" y="527.9126643614" type="curve" smooth="yes"/>
			<point x="176.6298342541" y="527.9126643614"/>
			<point x="110" y="476.7188659118"/>
			<point x="110" y="400.9126643614" type="curve" smooth="yes"/>
			<point x="110" y="321.2806643614"/>
			<point x="156.0195874564" y="268.8976930572"/>
			<point x="313" y="148.9126643614" type="curve" smooth="yes"/>
			<point x="567" y="-44.0873356386"/>
			<point x="626" y="-100.0873356386"/>
			<point x="626" y="-158.0873356386" type="curve" smooth="yes"/>
			<point x="626" y="-188.302525512"/>
			<point x="606.2830188679" y="-235.0873356386"/>
			<point x="571" y="-235.0873356386" type="curve" smooth="yes"/>
			<point x="552.3793103448" y="-235.0873356386"/>
			<point x="544" y="-223.0159070672"/>
			<point x="544" y="-209.0873356386" type="curve" smooth="yes"/>
			<point x="544" y="-189.0873356386"/>
			<point x="556" y="-182.0873356386"/>
			<point x="556" y="-166.0873356386" type="curve" smooth="yes"/>
			<point x="556" y="-129.0873356386"/>
			<point x="510" y="-90.0873356386"/>
			<point x="271" y="94.9126643614" type="curve" smooth="yes"/>
			<point x="83" y="239.9126643614"/>
			<point x="41" y="305.9126643614"/>
			<point x="41" y="398.9126643614" type="curve" smooth="yes"/>
			<point x="41" y="497.9126643614"/>
			<point x="113" y="592.9126643614"/>
			<point x="290" y="592.9126643614" type="curve" smooth="yes"/>
			<point x="377.5532994924" y="592.9126643614"/>
			<point x="436" y="568.9126643614"/>
			<point x="486" y="537.9126643614" type="curve" smooth="yes"/>
			<point x="511" y="521.9126643614"/>
			<point x="516" y="510.9126643614"/>
			<point x="516" y="497.9126643614" type="curve" smooth="yes"/>
			<point x="516" y="478.9126643614"/>
			<point x="506" y="465.9126643614"/>
			<point x="486" y="465.9126643614" type="curve" smooth="yes"/>
		</contour>
		<contour>
			<point x="174" y="181.9126643614" type="curve" smooth="yes"/>
			<point x="130" y="141.9126643614"/>
			<point x="115" y="104.9126643614"/>
			<point x="115" y="47.9126643614" type="curve" smooth="yes"/>
			<point x="115" y="-14.0873356386"/>
			<point x="158" y="-76.0873356386"/>
			<point x="210" y="-76.0873356386" type="curve" smooth="yes"/>
			<point x="321" y="-76.0873356386"/>
			<point x="411.1043364444" y="34.3123243319"/>
			<point x="548" y="278.9126643614" type="curve" smooth="yes"/>
			<point x="561.1407166189" y="302.5659542754"/>
			<point x="569" y="309.9126643614"/>
			<point x="582" y="309.9126643614" type="curve" smooth="yes"/>
			<point x="602" y="309.9126643614"/>
			<point x="614" y="289.9126643614"/>
			<point x="614" y="269.9126643614" type="curve" smooth="yes"/>
			<point x="614" y="259.9126643614"/>
			<point x="612" y="253.9126643614"/>
			<point x="602" y="235.9126643614" type="curve" smooth="yes"/>
			<point x="445" y="-44.0873356386"/>
			<point x="330" y="-140.0873356386"/>
			<point x="207" y="-140.0873356386" type="curve" smooth="yes"/>
			<point x="124" y="-140.0873356386"/>
			<point x="47" y="-57.0873356386"/>
			<point x="47" y="45.9126643614" type="curve" smooth="yes"/>
			<point x="47" y="118.9126643614"/>
			<point x="80" y="180.9126643614"/>
			<point x="131" y="222.9126643614" type="curve" smooth="yes"/>
			<point x="146" y="234.9126643614"/>
			<point x="168" y="232.9126643614"/>
			<point x="179" y="218.9126643614" type="curve" smooth="yes"/>
			<point x="188" y="207.9126643614"/>
			<point x="183" y="189.9126643614"/>
		</contour>
	</outline>
</glyph>
<glyph name="parenleft" format="2">
	<unicode hex="0028"/>
	<advance width="421"/>
	<outline>
		<contour>
			<point x="374" y="630.8330434387" type="curve" smooth="yes"/>
			<point x="263" y="484.8330434387"/>
			<point x="162" y="288.8330434387"/>
			<point x="162" y="60.8330434387" type="curve" smooth="yes"/>
			<point x="162" y="-136.1669565613"/>
			<point x="231" y="-255.1669565613"/>
			<point x="356" y="-304.1669565613" type="curve" smooth="yes"/>
			<point x="382" y="-314.1669565613"/>
			<point x="391" y="-328.1669565613"/>
			<point x="391" y="-342.1669565613" type="curve" smooth="yes"/>
			<point x="391" y="-360.0572832843"/>
			<point x="378" y="-376.1669565613"/>
			<point x="365" y="-376.1669565613" type="curve" smooth="yes"/>
			<point x="349" y="-376.1669565613"/>
			<point x="342" y="-374.1669565613"/>
			<point x="318" y="-364.1669565613" type="curve" smooth="yes"/>
			<point x="183" y="-310.1669565613"/>
			<point x="92" y="-176.1669565613"/>
			<point x="92" y="60.8330434387" type="curve" smooth="yes"/>
			<point x="92" y="304.8330434387"/>
			<point x="199" y="514.8330434387"/>
			<point x="320" y="674.8330434387" type="curve" smooth="yes"/>
			<point x="332" y="690.8330434387"/>
			<point x="343" y="695.8330434387"/>
			<point x="353" y="695.8330434387" type="curve" smooth="yes"/>
			<point x="376" y="695.8330434387"/>
			<point x="388" y="678.8330434387"/>
			<point x="388" y="660.8330434387" type="curve" smooth="yes"/>
			<point x="388" y="652.8330434387"/>
			<point x="385" y="645.8330434387"/>
		</contour>
	</outline>
</glyph>
<glyph name="comma" format="2">
	<unicode hex="002C"/>
	<advance width="240"/>
	<outline>
		<contour>
			<point x="159" y="199.3598281517"/>
			<point x="139" y="216.3598281517"/>
			<point x="104" y="216.3598281517" type="curve" smooth="yes"/>
			<point x="83" y="216.3598281517"/>
			<point x="70" y="199.3598281517"/>
			<point x="70" y="165.3598281517" type="curve" smooth="yes"/>
			<point x="70" y="92.3598281517"/>
			<point x="57" y="39.3598281517"/>
			<point x="28" y="-14.6401718483" type="curve" smooth="yes"/>
			<point x="13" y="-43.6401718483"/>
			<point x="6" y="-61.6401718483"/>
			<point x="6" y="-74.6401718483" type="curve" smooth="yes"/>
			<point x="6" y="-88.6401718483"/>
			<point x="16" y="-98.6401718483"/>
			<point x="31" y="-98.6401718483" type="curve" smooth="yes"/>
			<point x="49" y="-98.6401718483"/>
			<point x="73" y="-86.6401718483"/>
			<point x="88" y="-66.6401718483" type="curve" smooth="yes"/>
			<point x="132" y="-3.6401718483"/>
			<point x="159" y="91.3598281517"/>
			<point x="159" y="152.3598281517" type="curve" smooth="yes"/>
		</contour>
	</outline>
</glyph>
<glyph name="period" format="2">
	<unicode hex="002E"/>
	<advance width="320"/>
	<outline>
		<contour>
			<point x="176" y="188.155487924" type="curve" smooth="yes"/>
			<point x="210" y="188.155487924"/>
			<point x="223" y="214.155487924"/>
			<point x="223" y="239.155487924" type="curve" smooth="yes"/>
			<point x="223" y="274.155487924"/>
			<point x="194" y="317.155487924"/>
			<point x="146" y="317.155487924" type="curve" smooth="yes"/>
			<point x="120" y="317.155487924"/>
			<point x="98" y="297.155487924"/>
			<point x="98" y="269.155487924" type="curve" smooth="yes"/>
			<point x="98" y="228.155487924"/>
			<point x="134" y="188.155487924"/>
		</contour>
	</outline>
</glyph>
<glyph name="slash" format="2">
	<unicode hex="002F"/>
	<advance width="330"/>
	<outline>
		<contour>
			<point x="412" y="907.5061458714" type="curve" smooth="yes"/>
			<point x="228.3282213789" y="602.0519922951"/>
			<point x="138" y="334.5061458714"/>
			<point x="117" y="58.5061458714" type="curve" smooth="yes"/>
			<point x="115" y="29.5061458714"/>
			<point x="103" y="16.5061458714"/>
			<point x="85" y="16.5061458714" type="curve" smooth="yes"/>
			<point x="62" y="16.5061458714"/>
			<point x="45.9994436229" y="33.4980784028"/>
			<point x="48" y="62.5061458714" type="curve" smooth="yes"/>
			<point x="70" y="360.5061458714"/>
			<point x="169" y="647.5061458714"/>
			<point x="342" y="939.5061458714" type="curve" smooth="yes"/>
			<point x="361" y="971.5061458714"/>
			<point x="374" y="984.5061458714"/>
			<point x="392" y="984.5061458714" type="curve" smooth="yes"/>
			<point x="415" y="984.5061458714"/>
			<point x="440" y="954.5061458714"/>
		</contour>
	</outline>
</glyph>
<glyph name="seven" format="2">
	<unicode hex="0037"/>
	<advance width="700"/>
	<image fileName="zero.png" xScale="2.3662938837" yScale="2.3662938837" xOffset="-6555.8248343698" yOffset="-192.644631698" color="0,0,0,0.16492"/>
	<outline>
		<contour>
			<point x="222" y="196.0386031417" type="curve" smooth="yes"/>
			<point x="324.0338983051" y="196.0386031417"/>
			<point x="414.5988023952" y="224.0386031417"/>
			<point x="566" y="224.0386031417" type="curve" smooth="yes"/>
			<point x="607" y="224.0386031417"/>
			<point x="632" y="206.0386031417"/>
			<point x="632" y="179.0386031417" type="curve" smooth="yes"/>
			<point x="632" y="167.0386031417"/>
			<point x="621" y="159.0386031417"/>
			<point x="601" y="159.0386031417" type="curve" smooth="yes"/>
			<point x="411.4410876133" y="159.0386031417"/>
			<point x="343.5498575498" y="131.0386031417"/>
			<point x="260" y="131.0386031417" type="curve" smooth="yes"/>
			<point x="225" y="131.0386031417"/>
			<point x="199" y="153.0386031417"/>
			<point x="199" y="172.0386031417" type="curve" smooth="yes"/>
			<point x="199" y="186.0386031417"/>
			<point x="211" y="196.0386031417"/>
		</contour>
		<contour>
			<point x="120" y="497.0386031417" type="curve" smooth="yes"/>
			<point x="197.4870062078" y="534.2323661214"/>
			<point x="276.0975609756" y="560.0386031417"/>
			<point x="376" y="560.0386031417" type="curve" smooth="yes"/>
			<point x="524" y="560.0386031417"/>
			<point x="580" y="501.0386031417"/>
			<point x="580" y="415.0386031417" type="curve" smooth="yes"/>
			<point x="580" y="275.0386031417"/>
			<point x="380" y="85.0386031417"/>
			<point x="380" y="-100.9613968583" type="curve" smooth="yes"/>
			<point x="380" y="-145.9613968583"/>
			<point x="373" y="-158.9613968583"/>
			<point x="353" y="-158.9613968583" type="curve" smooth="yes"/>
			<point x="331" y="-158.9613968583"/>
			<point x="313" y="-139.9613968583"/>
			<point x="313" y="-100.9613968583" type="curve" smooth="yes"/>
			<point x="313" y="97.0386031417"/>
			<point x="513" y="301.0386031417"/>
			<point x="513" y="412.0386031417" type="curve" smooth="yes"/>
			<point x="513" y="467.0386031417"/>
			<point x="487" y="493.0386031417"/>
			<point x="383" y="493.0386031417" type="curve" smooth="yes"/>
			<point x="236.2213114754" y="493.0386031417"/>
			<point x="172.7213114754" y="430.0386031417"/>
			<point x="129" y="430.0386031417" type="curve" smooth="yes"/>
			<point x="109" y="430.0386031417"/>
			<point x="93" y="442.0386031417"/>
			<point x="93" y="462.0386031417" type="curve" smooth="yes"/>
			<point x="93" y="476.0386031417"/>
			<point x="103" y="489.0386031417"/>
		</contour>
	</outline>
</glyph>
<glyph name="eight" format="2">
	<unicode hex="0038"/>
	<advance width="700"/>
	<image fileName="zero.png" xScale="2.3662938837" yScale="2.3662938837" xOffset="-7182.8248343698" yOffset="-192.644631698" color="0,0,0,0.16492"/>
	<outline>
		<contour>
			<point x="446" y="800.8919249446" type="curve" smooth="yes"/>
			<point x="252.7300157411" y="805.3605951009"/>
			<point x="160" y="771.8919249446"/>
			<point x="160" y="699.8919249446" type="curve" smooth="yes"/>
			<point x="160" y="659.1786382313"/>
			<point x="181.3605250435" y="628.1250668558"/>
			<point x="374" y="557.8919249446" type="curve" smooth="yes"/>
			<point x="580.2824942527" y="483.1518907951"/>
			<point x="593" y="417.2315475861"/>
			<point x="593" y="344.8919249446" type="curve" smooth="yes"/>
			<point x="593" y="241.8919249446"/>
			<point x="505" y="142.8919249446"/>
			<point x="276" y="142.8919249446" type="curve" smooth="yes"/>
			<point x="161" y="142.8919249446"/>
			<point x="120" y="205.8919249446"/>
			<point x="121" y="279.8919249446" type="curve" smooth="yes"/>
			<point x="122" y="347.8919249446"/>
			<point x="136" y="409.8919249446"/>
			<point x="334" y="543.8919249446" type="curve" smooth="yes"/>
			<point x="434" y="610.8919249446"/>
			<point x="487" y="666.8919249446"/>
			<point x="513" y="756.8919249446" type="curve" smooth="yes"/>
			<point x="522" y="785.8919249446"/>
			<point x="528.7777777778" y="797.8919249446"/>
			<point x="546" y="797.8919249446" type="curve" smooth="yes"/>
			<point x="562.8596491228" y="797.8919249446"/>
			<point x="577" y="782.8919249446"/>
			<point x="577" y="763.8919249446" type="curve" smooth="yes"/>
			<point x="577" y="689.8919249446"/>
			<point x="518.4832924048" y="585.5723944031"/>
			<point x="381" y="494.8919249446" type="curve" smooth="yes"/>
			<point x="228" y="395.8919249446"/>
			<point x="185" y="336.8919249446"/>
			<point x="185" y="278.8919249446" type="curve" smooth="yes"/>
			<point x="185" y="249.8919249446"/>
			<point x="193" y="218.8919249446"/>
			<point x="211" y="191.8919249446" type="curve"/>
			<point x="172" y="238.8919249446" type="line"/>
			<point x="202" y="217.8919249446"/>
			<point x="241" y="207.8919249446"/>
			<point x="276" y="207.8919249446" type="curve" smooth="yes"/>
			<point x="414" y="207.8919249446"/>
			<point x="526" y="253.8919249446"/>
			<point x="526" y="346.8919249446" type="curve" smooth="yes"/>
			<point x="526" y="407.4852582779"/>
			<point x="491.8927426564" y="444.9301775636"/>
			<point x="349" y="495.8919249446" type="curve" smooth="yes"/>
			<point x="123.876552534" y="575.935817377"/>
			<point x="91.9951228642" y="628.5358940315"/>
			<point x="93" y="701.8919249446" type="curve" smooth="yes"/>
			<point x="95" y="804.8919249446"/>
			<point x="190" y="865.8919249446"/>
			<point x="405" y="865.8919249446" type="curve" smooth="yes"/>
			<point x="455" y="865.8919249446"/>
			<point x="477" y="844.8919249446"/>
			<point x="477" y="823.8919249446" type="curve" smooth="yes"/>
			<point x="477" y="810.8919249446"/>
			<point x="462" y="799.8919249446"/>
		</contour>
	</outline>
</glyph>
<glyph name="nine" format="2">
	<unicode hex="0039"/>
	<advance width="700"/>
	<image fileName="zero.png" xScale="2.3662938837" yScale="2.3662938837" xOffset="-7800.8248343698" yOffset="-227.644631698" color="0,0,0,0.16492"/>
	<outline>
		<contour>
			<point x="496" y="514.7861216428" type="curve" smooth="yes"/>
			<point x="510" y="514.7861216428"/>
			<point x="517" y="534.7861216428"/>
			<point x="517" y="554.7861216428" type="curve" smooth="yes"/>
			<point x="517" y="604.7861216428"/>
			<point x="462" y="635.7861216428"/>
			<point x="369" y="635.7861216428" type="curve" smooth="yes"/>
			<point x="198" y="635.7861216428"/>
			<point x="92" y="507.7861216428"/>
			<point x="92" y="383.7861216428" type="curve" smooth="yes"/>
			<point x="92" y="276.7861216428"/>
			<point x="150" y="203.7861216428"/>
			<point x="277" y="203.7861216428" type="curve" smooth="yes"/>
			<point x="389" y="203.7861216428"/>
			<point x="501" y="270.7861216428"/>
			<point x="537" y="381.7861216428" type="curve"/>
			<point x="513" y="384.7861216428" type="line"/>
			<point x="513" y="204.7861216428"/>
			<point x="503" y="63.7861216428"/>
			<point x="519" y="-36.2138783572" type="curve" smooth="yes"/>
			<point x="523.9893124088" y="-65.1518903282"/>
			<point x="540" y="-83.2138783572"/>
			<point x="567" y="-83.2138783572" type="curve" smooth="yes"/>
			<point x="582" y="-83.2138783572"/>
			<point x="590" y="-72.2138783572"/>
			<point x="590" y="-53.2138783572" type="curve" smooth="yes"/>
			<point x="590" y="-3.2138783572"/>
			<point x="578" y="45.845882599"/>
			<point x="578" y="205.7861216428" type="curve" smooth="yes"/>
			<point x="578" y="245.7861216428"/>
			<point x="575" y="344.7861216428"/>
			<point x="576" y="450.7861216428" type="curve"/>
			<point x="594.9426409456" y="556.466118497"/>
			<point x="571" y="582.7861216428"/>
			<point x="532" y="582.7861216428" type="curve" smooth="yes"/>
			<point x="515" y="582.7861216428"/>
			<point x="504" y="564.7861216428"/>
			<point x="504" y="529.7861216428" type="curve" smooth="yes"/>
			<point x="504" y="345.7861216428"/>
			<point x="392" y="268.7861216428"/>
			<point x="277" y="268.7861216428" type="curve" smooth="yes"/>
			<point x="202" y="268.7861216428"/>
			<point x="159" y="307.7861216428"/>
			<point x="159" y="383.7861216428" type="curve" smooth="yes"/>
			<point x="159" y="490.7861216428"/>
			<point x="248" y="570.7861216428"/>
			<point x="369" y="570.7861216428" type="curve" smooth="yes"/>
			<point x="474" y="570.7861216428"/>
			<point x="460" y="514.7861216428"/>
		</contour>
	</outline>
</glyph>
<glyph name="semicolon" format="2">
	<unicode hex="003B"/>
	<advance width="320"/>
	<outline>
		<contour>
			<point x="166" y="170.8652886031" type="curve" smooth="yes"/>
			<point x="207" y="170.8652886031"/>
			<point x="223" y="196.8652886031"/>
			<point x="223" y="221.8652886031" type="curve" smooth="yes"/>
			<point x="223" y="256.8652886031"/>
			<point x="198" y="299.8652886031"/>
			<point x="156" y="299.8652886031" type="curve" smooth="yes"/>
			<point x="125" y="299.8652886031"/>
			<point x="98" y="275.8652886031"/>
			<point x="98" y="241.8652886031" type="curve" smooth="yes"/>
			<point x="98" y="205.8652886031"/>
			<point x="129" y="170.8652886031"/>
		</contour>
		<component base="comma" yOffset="-196.1347113969"/>
	</outline>
</glyph>
<glyph name="M" format="2">
	<unicode hex="004D"/>
	<advance width="916"/>
	<image fileName="B_.png" xScale="2.611894476" yScale="2.611894476" xOffset="-3165.7903116164" yOffset="-300.367864743" color="0,0,0,0.25523"/>
	<outline>
		<contour>
			<point x="183" y="660.9349336741" type="curve" smooth="yes"/>
			<point x="191" y="538.9349336741"/>
			<point x="157" y="543.9349336741"/>
			<point x="174" y="661.9349336741" type="curve" smooth="yes"/>
			<point x="197" y="821.9349336741"/>
			<point x="232" y="892.9349336741"/>
			<point x="282" y="892.9349336741" type="curve" smooth="yes"/>
			<point x="352" y="892.9349336741"/>
			<point x="375" y="721.9349336741"/>
			<point x="413" y="423.9349336741" type="curve" smooth="yes"/>
			<point x="417" y="393.9349336741"/>
			<point x="431" y="315.9349336741"/>
			<point x="463" y="252.9349336741" type="curve" smooth="yes"/>
			<point x="480" y="219.9349336741"/>
			<point x="412" y="187.9349336741"/>
			<point x="440" y="243.9349336741" type="curve" smooth="yes"/>
			<point x="521" y="392.9349336741"/>
			<point x="548" y="637.9349336741"/>
			<point x="595" y="753.9349336741" type="curve" smooth="yes"/>
			<point x="634" y="849.9349336741"/>
			<point x="664" y="886.9349336741"/>
			<point x="693" y="886.9349336741" type="curve" smooth="yes"/>
			<point x="726" y="886.9349336741"/>
			<point x="776" y="841.9349336741"/>
			<point x="785" y="629.9349336741" type="curve" smooth="yes"/>
			<point x="791" y="496.9349336741"/>
			<point x="818" y="350.9349336741"/>
			<point x="861" y="230.9349336741" type="curve" smooth="yes"/>
			<point x="875" y="187.9349336741"/>
			<point x="861" y="174.9349336741"/>
			<point x="838" y="174.9349336741" type="curve" smooth="yes"/>
			<point x="817" y="174.9349336741"/>
			<point x="805" y="191.9349336741"/>
			<point x="783" y="248.9349336741" type="curve" smooth="yes"/>
			<point x="752" y="330.9349336741"/>
			<point x="725" y="492.9349336741"/>
			<point x="720" y="614.9349336741" type="curve" smooth="yes"/>
			<point x="716" y="704.9349336741"/>
			<point x="703" y="749.9349336741"/>
			<point x="678" y="794.9349336741" type="curve" smooth="yes"/>
			<point x="653" y="839.9349336741"/>
			<point x="761" y="871.9349336741"/>
			<point x="689" y="785.9349336741" type="curve" smooth="yes"/>
			<point x="609" y="687.9349336741"/>
			<point x="612" y="430.9349336741"/>
			<point x="501" y="208.9349336741" type="curve" smooth="yes"/>
			<point x="490" y="186.9349336741"/>
			<point x="482" y="174.9349336741"/>
			<point x="458" y="174.9349336741" type="curve" smooth="yes"/>
			<point x="438" y="174.9349336741"/>
			<point x="425" y="185.9349336741"/>
			<point x="408" y="212.9349336741" type="curve" smooth="yes"/>
			<point x="365" y="284.9349336741"/>
			<point x="342" y="418.9349336741"/>
			<point x="324" y="556.9349336741" type="curve" smooth="yes"/>
			<point x="313" y="653.9349336741"/>
			<point x="294" y="742.9349336741"/>
			<point x="269" y="814.9349336741" type="curve" smooth="yes"/>
			<point x="242" y="895.9349336741"/>
			<point x="320" y="911.9349336741"/>
			<point x="277" y="816.9349336741" type="curve" smooth="yes"/>
			<point x="225" y="691.9349336741"/>
			<point x="192" y="474.9349336741"/>
			<point x="192" y="215.9349336741" type="curve" smooth="yes"/>
			<point x="192" y="185.9349336741"/>
			<point x="180" y="171.9349336741"/>
			<point x="164" y="171.9349336741" type="curve" smooth="yes"/>
			<point x="142" y="171.9349336741"/>
			<point x="113" y="190.9349336741"/>
			<point x="113" y="321.9349336741" type="curve" smooth="yes"/>
			<point x="113" y="427.9349336741"/>
			<point x="123" y="496.9349336741"/>
			<point x="123" y="569.9349336741" type="curve" smooth="yes"/>
			<point x="123" y="736.9349336741"/>
			<point x="89" y="769.9349336741"/>
			<point x="89" y="805.9349336741" type="curve" smooth="yes"/>
			<point x="89" y="822.9349336741"/>
			<point x="98" y="831.9349336741"/>
			<point x="115" y="831.9349336741" type="curve" smooth="yes"/>
			<point x="152" y="831.9349336741"/>
			<point x="177" y="758.9349336741"/>
		</contour>
	</outline>
</glyph>
<glyph name="R" format="2">
	<unicode hex="0052"/>
	<advance width="700"/>
	<outline>
		<contour>
			<point x="97" y="712.6104234536" type="curve" smooth="yes"/>
			<point x="67" y="712.6104234536"/>
			<point x="63" y="694.6104234536"/>
			<point x="80" y="651.6104234536" type="curve" smooth="yes"/>
			<point x="111" y="574.6104234536"/>
			<point x="116" y="531.6104234536"/>
			<point x="121" y="476.6104234536" type="curve"/>
			<point x="86" y="353.6104234536"/>
			<point x="70" y="262.6104234536"/>
			<point x="70" y="187.6104234536" type="curve" smooth="yes"/>
			<point x="70" y="111.6104234536"/>
			<point x="80" y="68.6104234536"/>
			<point x="114" y="68.6104234536" type="curve" smooth="yes"/>
			<point x="133" y="68.6104234536"/>
			<point x="137" y="76.6104234536"/>
			<point x="137" y="149.6104234536" type="curve" smooth="yes"/>
			<point x="137" y="424.6104234536"/>
			<point x="252" y="726.6104234536"/>
			<point x="455" y="726.6104234536" type="curve" smooth="yes"/>
			<point x="528" y="726.6104234536"/>
			<point x="556" y="681.6104234536"/>
			<point x="556" y="628.6104234536" type="curve" smooth="yes"/>
			<point x="556" y="546.6104234536"/>
			<point x="479" y="453.6104234536"/>
			<point x="232" y="362.6104234536" type="curve" smooth="yes"/>
			<point x="189" y="346.6104234536"/>
			<point x="182" y="320.6104234536"/>
			<point x="205" y="289.6104234536" type="curve" smooth="yes"/>
			<point x="284" y="187.6104234536"/>
			<point x="526" y="69.6104234536"/>
			<point x="600" y="69.6104234536" type="curve" smooth="yes"/>
			<point x="632" y="69.6104234536"/>
			<point x="644" y="78.6104234536"/>
			<point x="644" y="100.6104234536" type="curve" smooth="yes"/>
			<point x="644" y="115.6104234536"/>
			<point x="634" y="126.6104234536"/>
			<point x="590" y="141.6104234536" type="curve" smooth="yes"/>
			<point x="448" y="188.6104234536"/>
			<point x="334" y="256.6104234536"/>
			<point x="274" y="313.6104234536" type="curve"/>
			<point x="564" y="418.6104234536"/>
			<point x="626" y="531.6104234536"/>
			<point x="626" y="629.6104234536" type="curve" smooth="yes"/>
			<point x="626" y="720.6104234536"/>
			<point x="577" y="791.6104234536"/>
			<point x="464" y="791.6104234536" type="curve" smooth="yes"/>
			<point x="338" y="791.6104234536"/>
			<point x="226" y="718.6104234536"/>
			<point x="149" y="534.6104234536" type="curve"/>
			<point x="173" y="543.6104234536" type="line"/>
			<point x="164" y="666.6104234536"/>
			<point x="131" y="712.6104234536"/>
		</contour>
	</outline>
</glyph>
<glyph name="U" format="2">
	<unicode hex="0055"/>
	<advance width="650"/>
	<outline>
		<contour>
			<point x="351" y="183.0628606738" type="curve" smooth="yes"/>
			<point x="509" y="183.0628606738"/>
			<point x="581" y="310.0628606738"/>
			<point x="581" y="494.0628606738" type="curve" smooth="yes"/>
			<point x="581" y="567.0628606738"/>
			<point x="576" y="637.0628606738"/>
			<point x="576" y="707.0628606738" type="curve" smooth="yes"/>
			<point x="576" y="814.0628606738"/>
			<point x="588" y="843.0628606738"/>
			<point x="588" y="880.0628606738" type="curve" smooth="yes"/>
			<point x="588" y="902.0628606738"/>
			<point x="578" y="908.0628606738"/>
			<point x="562" y="908.0628606738" type="curve" smooth="yes"/>
			<point x="527" y="908.0628606738"/>
			<point x="506" y="872.0628606738"/>
			<point x="506" y="811.0628606738" type="curve" smooth="yes"/>
			<point x="506" y="694.0628606738"/>
			<point x="514" y="625.0628606738"/>
			<point x="514" y="501.0628606738" type="curve" smooth="yes"/>
			<point x="514" y="328.0628606738"/>
			<point x="464" y="249.0628606738"/>
			<point x="344" y="249.0628606738" type="curve" smooth="yes"/>
			<point x="237" y="249.0628606738"/>
			<point x="152" y="322.0628606738"/>
			<point x="152" y="535.0628606738" type="curve" smooth="yes"/>
			<point x="152" y="592.0628606738"/>
			<point x="159" y="662.0628606738"/>
			<point x="159" y="714.0628606738" type="curve" smooth="yes"/>
			<point x="159" y="857.0628606738"/>
			<point x="126" y="908.0628606738"/>
			<point x="97" y="908.0628606738" type="curve" smooth="yes"/>
			<point x="78" y="908.0628606738"/>
			<point x="67" y="897.0628606738"/>
			<point x="67" y="872.0628606738" type="curve" smooth="yes"/>
			<point x="67" y="826.0628606738"/>
			<point x="91" y="814.0628606738"/>
			<point x="91" y="685.0628606738" type="curve" smooth="yes"/>
			<point x="91" y="647.0628606738"/>
			<point x="86" y="587.0628606738"/>
			<point x="86" y="533.0628606738" type="curve" smooth="yes"/>
			<point x="86" y="322.0628606738"/>
			<point x="165" y="183.0628606738"/>
		</contour>
	</outline>
</glyph>
<glyph name="V" format="2">
	<unicode hex="0056"/>
	<advance width="665"/>
	<outline>
		<contour>
			<point x="304" y="65.5540712206"/>
			<point x="318" y="59.5540712206"/>
			<point x="342" y="59.5540712206" type="curve" smooth="yes"/>
			<point x="354" y="59.5540712206"/>
			<point x="365" y="68.5540712206"/>
			<point x="378" y="119.5540712206" type="curve" smooth="yes"/>
			<point x="435" y="342.5540712206"/>
			<point x="490" y="469.5540712206"/>
			<point x="616" y="685.5540712206" type="curve" smooth="yes"/>
			<point x="630" y="709.5540712206"/>
			<point x="639" y="732.5540712206"/>
			<point x="639" y="754.5540712206" type="curve" smooth="yes"/>
			<point x="639" y="768.5540712206"/>
			<point x="632" y="779.5540712206"/>
			<point x="617" y="779.5540712206" type="curve" smooth="yes"/>
			<point x="600" y="779.5540712206"/>
			<point x="594" y="773.5540712206"/>
			<point x="559" y="719.5540712206" type="curve" smooth="yes"/>
			<point x="448" y="546.5540712206"/>
			<point x="374" y="354.5540712206"/>
			<point x="316" y="128.5540712206" type="curve"/>
			<point x="339" y="135.5540712206" type="line"/>
			<point x="223" y="315.5540712206"/>
			<point x="227" y="548.5540712206"/>
			<point x="148" y="698.5540712206" type="curve" smooth="yes"/>
			<point x="120" y="754.5540712206"/>
			<point x="98" y="776.5540712206"/>
			<point x="69" y="776.5540712206" type="curve" smooth="yes"/>
			<point x="55" y="776.5540712206"/>
			<point x="48" y="767.5540712206"/>
			<point x="48" y="754.5540712206" type="curve" smooth="yes"/>
			<point x="48" y="732.5540712206"/>
			<point x="59" y="713.5540712206"/>
			<point x="91" y="662.5540712206" type="curve" smooth="yes"/>
			<point x="149" y="571.5540712206"/>
			<point x="166" y="290.5540712206"/>
			<point x="266" y="128.5540712206" type="curve" smooth="yes"/>
		</contour>
	</outline>
</glyph>
<glyph name="Y" format="2">
	<unicode hex="0059"/>
	<advance width="601"/>
	<image fileName="W_.png" xScale="2.149419181" yScale="2.149419181" xOffset="-7799.9384359798" yOffset="-239.078106569" color="0,0,0,0.26332"/>
	<outline>
		<contour>
			<point x="542" y="728.7696823879" type="curve" smooth="yes"/>
			<point x="408" y="584.7696823879"/>
			<point x="308" y="381.7696823879"/>
			<point x="268" y="162.7696823879" type="curve" smooth="yes"/>
			<point x="259" y="112.7696823879"/>
			<point x="247" y="100.7696823879"/>
			<point x="222" y="100.7696823879" type="curve" smooth="yes"/>
			<point x="196" y="100.7696823879"/>
			<point x="184" y="122.7696823879"/>
			<point x="198" y="183.7696823879" type="curve" smooth="yes"/>
			<point x="238" y="378.7696823879"/>
			<point x="344" y="623.7696823879"/>
			<point x="501" y="794.7696823879" type="curve" smooth="yes"/>
			<point x="527" y="822.7696823879"/>
			<point x="542" y="827.7696823879"/>
			<point x="557" y="827.7696823879" type="curve" smooth="yes"/>
			<point x="570" y="827.7696823879"/>
			<point x="583" y="816.7696823879"/>
			<point x="583" y="797.7696823879" type="curve" smooth="yes"/>
			<point x="583" y="773.7696823879"/>
			<point x="579" y="766.7696823879"/>
		</contour>
		<contour>
			<point x="96" y="793.7696823879" type="curve" smooth="yes"/>
			<point x="172" y="654.7696823879"/>
			<point x="220" y="626.7696823879"/>
			<point x="300" y="476.7696823879" type="curve" smooth="yes"/>
			<point x="309" y="458.7696823879"/>
			<point x="312" y="423.7696823879"/>
			<point x="280" y="423.7696823879" type="curve" smooth="yes"/>
			<point x="262" y="423.7696823879"/>
			<point x="250" y="435.7696823879"/>
			<point x="240" y="452.7696823879" type="curve" smooth="yes"/>
			<point x="152.3162334957" y="598.196417078"/>
			<point x="108" y="639.7696823879"/>
			<point x="51" y="734.7696823879" type="curve" smooth="yes"/>
			<point x="29" y="773.7696823879"/>
			<point x="25" y="782.7696823879"/>
			<point x="25" y="798.7696823879" type="curve" smooth="yes"/>
			<point x="25" y="815.7696823879"/>
			<point x="36" y="826.7696823879"/>
			<point x="53" y="826.7696823879" type="curve" smooth="yes"/>
			<point x="72" y="826.7696823879"/>
			<point x="83" y="816.7696823879"/>
		</contour>
	</outline>
</glyph>
<glyph name="Z" format="2">
	<unicode hex="005A"/>
	<advance width="636"/>
	<image fileName="W_.png" xScale="2.149419181" yScale="2.149419181" xOffset="-8482.561352475" yOffset="-239.078106569" color="0,0,0,0.26332"/>
	<outline>
		<contour>
			<point x="131" y="556.6812440431" type="curve" smooth="yes"/>
			<point x="197" y="571.6812440431"/>
			<point x="258" y="581.6812440431"/>
			<point x="320" y="581.6812440431" type="curve" smooth="yes"/>
			<point x="502" y="581.6812440431"/>
			<point x="544" y="517.6812440431"/>
			<point x="544" y="443.6812440431" type="curve" smooth="yes"/>
			<point x="544" y="371.6812440431"/>
			<point x="516" y="320.6812440431"/>
			<point x="314" y="187.6812440431" type="curve" smooth="yes"/>
			<point x="115" y="56.6812440431"/>
			<point x="119" y="9.6812440431"/>
			<point x="133" y="-84.3187559569" type="curve" smooth="yes"/>
			<point x="136" y="-107.3187559569"/>
			<point x="65" y="-41.3187559569"/>
			<point x="109" y="-59.3187559569" type="curve" smooth="yes"/>
			<point x="133" y="-69.3187559569"/>
			<point x="162" y="-70.3187559569"/>
			<point x="182" y="-70.3187559569" type="curve" smooth="yes"/>
			<point x="260" y="-70.3187559569"/>
			<point x="339" y="-62.3187559569"/>
			<point x="429" y="-62.3187559569" type="curve" smooth="yes"/>
			<point x="556" y="-62.3187559569"/>
			<point x="608" y="-74.3187559569"/>
			<point x="608" y="-109.3187559569" type="curve" smooth="yes"/>
			<point x="608" y="-126.3187559569"/>
			<point x="593" y="-135.3187559569"/>
			<point x="561" y="-135.3187559569" type="curve" smooth="yes"/>
			<point x="515" y="-135.3187559569"/>
			<point x="494" y="-128.3187559569"/>
			<point x="413" y="-128.3187559569" type="curve" smooth="yes"/>
			<point x="330" y="-128.3187559569"/>
			<point x="252" y="-135.3187559569"/>
			<point x="185" y="-135.3187559569" type="curve" smooth="yes"/>
			<point x="93" y="-135.3187559569"/>
			<point x="61" y="-94.3187559569"/>
			<point x="61" y="-21.3187559569" type="curve" smooth="yes"/>
			<point x="61" y="35.6812440431"/>
			<point x="88" y="126.6812440431"/>
			<point x="289" y="252.6812440431" type="curve" smooth="yes"/>
			<point x="474" y="366.6812440431"/>
			<point x="489" y="419.6812440431"/>
			<point x="475" y="495.6812440431" type="curve" smooth="yes"/>
			<point x="464" y="551.6812440431"/>
			<point x="525" y="461.6812440431"/>
			<point x="480" y="488.6812440431" type="curve" smooth="yes"/>
			<point x="448" y="507.6812440431"/>
			<point x="407" y="514.6812440431"/>
			<point x="321" y="514.6812440431" type="curve" smooth="yes"/>
			<point x="206" y="514.6812440431"/>
			<point x="159" y="490.6812440431"/>
			<point x="119" y="490.6812440431" type="curve" smooth="yes"/>
			<point x="104" y="490.6812440431"/>
			<point x="85" y="498.6812440431"/>
			<point x="85" y="518.6812440431" type="curve" smooth="yes"/>
			<point x="85" y="535.6812440431"/>
			<point x="99" y="548.6812440431"/>
		</contour>
	</outline>
</glyph>
<glyph name="bracketright" format="2">
	<unicode hex="005D"/>
	<advance width="453"/>
	<outline>
		<contour>
			<point x="59" y="-379.7223497596" type="curve" smooth="yes"/>
			<point x="119" y="-379.7223497596"/>
			<point x="260" y="-362.7223497596"/>
			<point x="317" y="-341.7223497596" type="curve"/>
			<point x="294" y="-368.7223497596" type="line"/>
			<point x="336" y="-107.7223497596"/>
			<point x="244" y="229.2776502404"/>
			<point x="268" y="588.2776502404" type="curve"/>
			<point x="309" y="553.2776502404" type="line"/>
			<point x="241" y="539.2776502404"/>
			<point x="148" y="561.2776502404"/>
			<point x="80" y="561.2776502404" type="curve" smooth="yes"/>
			<point x="52" y="561.2776502404"/>
			<point x="30" y="578.2776502404"/>
			<point x="30" y="607.2776502404" type="curve" smooth="yes"/>
			<point x="30" y="620.2776502404"/>
			<point x="36" y="631.2776502404"/>
			<point x="60" y="631.2776502404" type="curve" smooth="yes"/>
			<point x="114" y="631.2776502404"/>
			<point x="183" y="617.2776502404"/>
			<point x="244" y="617.2776502404" type="curve" smooth="yes"/>
			<point x="265" y="617.2776502404"/>
			<point x="286" y="622.2776502404"/>
			<point x="304" y="622.2776502404" type="curve" smooth="yes"/>
			<point x="326" y="622.2776502404"/>
			<point x="340" y="606.2776502404"/>
			<point x="338" y="584.2776502404" type="curve" smooth="yes"/>
			<point x="313" y="221.2776502404"/>
			<point x="406" y="-117.7223497596"/>
			<point x="364" y="-380.7223497596" type="curve" smooth="yes"/>
			<point x="362" y="-392.7223497596"/>
			<point x="353" y="-402.7223497596"/>
			<point x="341" y="-407.7223497596" type="curve" smooth="yes"/>
			<point x="283" y="-429.7223497596"/>
			<point x="143" y="-449.7223497596"/>
			<point x="81" y="-449.7223497596" type="curve" smooth="yes"/>
			<point x="55" y="-449.7223497596"/>
			<point x="30" y="-433.7223497596"/>
			<point x="30" y="-404.7223497596" type="curve" smooth="yes"/>
			<point x="30" y="-391.7223497596"/>
			<point x="35" y="-379.7223497596"/>
		</contour>
	</outline>
</glyph>
<glyph name="a" format="2">
	<unicode hex="0061"/>
	<advance width="644"/>
	<outline>
		<contour>
			<point x="409" y="335.6833077193" type="curve" smooth="yes"/>
			<point x="413" y="358.6833077193"/>
			<point x="422" y="372.6833077193"/>
			<point x="442" y="372.6833077193" type="curve" smooth="yes"/>
			<point x="468" y="372.6833077193"/>
			<point x="487" y="346.6833077193"/>
			<point x="490" y="306.6833077193" type="curve" smooth="yes"/>
			<point x="502" y="170.6833077193"/>
			<point x="516" y="86.6833077193"/>
			<point x="589" y="-10.3166922807" type="curve" smooth="yes"/>
			<point x="607" y="-33.3166922807"/>
			<point x="594" y="-68.3166922807"/>
			<point x="570" y="-68.3166922807" type="curve" smooth="yes"/>
			<point x="552" y="-68.3166922807"/>
			<point x="544" y="-60.3166922807"/>
			<point x="533" y="-47.3166922807" type="curve" smooth="yes"/>
			<point x="480" y="23.6833077193"/>
			<point x="439" y="101.6833077193"/>
			<point x="433" y="310.6833077193" type="curve"/>
			<point x="462" y="309.6833077193" type="line"/>
			<point x="433.0067477096" y="30.74822534"/>
			<point x="314.8700361011" y="-71.3166922807"/>
			<point x="215" y="-71.3166922807" type="curve" smooth="yes"/>
			<point x="128.4545454545" y="-71.3166922807"/>
			<point x="75" y="-3.3166922807"/>
			<point x="75" y="101.6833077193" type="curve" smooth="yes"/>
			<point x="75" y="259.075238555"/>
			<point x="197.7947019868" y="432.6833077193"/>
			<point x="367" y="432.6833077193" type="curve" smooth="yes"/>
			<point x="391" y="432.6833077193"/>
			<point x="409" y="420.6833077193"/>
			<point x="409" y="398.6833077193" type="curve" smooth="yes"/>
			<point x="409" y="383.6833077193"/>
			<point x="400" y="371.6833077193"/>
			<point x="379" y="369.6833077193" type="curve" smooth="yes"/>
			<point x="239.0361617904" y="348.5928663452"/>
			<point x="146" y="227.1903499728"/>
			<point x="146" y="101.6833077193" type="curve" smooth="yes"/>
			<point x="146" y="58.6833077193"/>
			<point x="150" y="30.6833077193"/>
			<point x="177" y="-25.3166922807" type="curve"/>
			<point x="131" y="31.6833077193" type="line"/>
			<point x="159.8433435801" y="-0.2503941015"/>
			<point x="173" y="-7.3166922807"/>
			<point x="211" y="-7.3166922807" type="curve" smooth="yes"/>
			<point x="302" y="-7.3166922807"/>
			<point x="372.9084653072" y="113.1188437806"/>
		</contour>
	</outline>
</glyph>
<glyph name="b" format="2">
	<unicode hex="0062"/>
	<advance width="575"/>
	<image fileName="b.png" xScale="2.580311745" yScale="2.580311745" xOffset="-92.140747017" yOffset="-580.570142633" color="0,0,0,0.24109"/>
	<outline>
		<contour>
			<point x="172" y="583.715081435" type="curve" smooth="yes"/>
			<point x="172" y="480.715081435"/>
			<point x="156" y="420.715081435"/>
			<point x="156" y="228.715081435" type="curve" smooth="yes"/>
			<point x="156" y="174.715081435"/>
			<point x="161" y="109.715081435"/>
			<point x="166" y="26.715081435" type="curve" smooth="yes"/>
			<point x="169" y="-29.284918565"/>
			<point x="139" y="-5.284918565"/>
			<point x="150" y="57.715081435" type="curve" smooth="yes"/>
			<point x="186" y="260.715081435"/>
			<point x="287" y="333.715081435"/>
			<point x="363" y="333.715081435" type="curve" smooth="yes"/>
			<point x="459" y="333.715081435"/>
			<point x="527" y="271.715081435"/>
			<point x="527" y="125.715081435" type="curve" smooth="yes"/>
			<point x="527" y="-60.284918565"/>
			<point x="364" y="-169.284918565"/>
			<point x="190" y="-169.284918565" type="curve" smooth="yes"/>
			<point x="141" y="-169.284918565"/>
			<point x="86" y="-155.284918565"/>
			<point x="86" y="-118.284918565" type="curve" smooth="yes"/>
			<point x="86" y="-101.284918565"/>
			<point x="96" y="-92.284918565"/>
			<point x="110" y="-92.284918565" type="curve" smooth="yes"/>
			<point x="127" y="-92.284918565"/>
			<point x="154" y="-104.284918565"/>
			<point x="178" y="-104.284918565" type="curve" smooth="yes"/>
			<point x="336" y="-104.284918565"/>
			<point x="460" y="-21.284918565"/>
			<point x="460" y="134.715081435" type="curve" smooth="yes"/>
			<point x="460" y="202.715081435"/>
			<point x="440" y="267.715081435"/>
			<point x="363" y="267.715081435" type="curve" smooth="yes"/>
			<point x="265" y="267.715081435"/>
			<point x="210" y="122.715081435"/>
			<point x="173" y="-81.284918565" type="curve" smooth="yes"/>
			<point x="168" y="-104.284918565"/>
			<point x="158" y="-110.284918565"/>
			<point x="147" y="-110.284918565" type="curve" smooth="yes"/>
			<point x="133" y="-110.284918565"/>
			<point x="124" y="-86.284918565"/>
			<point x="117" y="-49.284918565" type="curve" smooth="yes"/>
			<point x="97" y="60.715081435"/>
			<point x="88" y="178.715081435"/>
			<point x="88" y="244.715081435" type="curve" smooth="yes"/>
			<point x="88" y="435.715081435"/>
			<point x="104" y="508.715081435"/>
			<point x="104" y="608.715081435" type="curve" smooth="yes"/>
			<point x="104" y="629.715081435"/>
			<point x="114" y="649.715081435"/>
			<point x="132" y="649.715081435" type="curve" smooth="yes"/>
			<point x="152" y="649.715081435"/>
			<point x="172" y="625.715081435"/>
		</contour>
	</outline>
</glyph>
<glyph name="c" format="2">
	<unicode hex="0063"/>
	<advance width="482"/>
	<image fileName="b.png" xScale="2.580311745" yScale="2.580311745" xOffset="-593.3109110762" yOffset="-580.570142633" color="0,0,0,0.24109"/>
	<outline>
		<contour>
			<point x="444" y="-8.7251891604" type="curve" smooth="yes"/>
			<point x="444" y="13.2748108396"/>
			<point x="437" y="21.2748108396"/>
			<point x="423" y="21.2748108396" type="curve" smooth="yes"/>
			<point x="393" y="21.2748108396"/>
			<point x="399" y="-46.7251891604"/>
			<point x="266" y="-46.7251891604" type="curve" smooth="yes"/>
			<point x="188" y="-46.7251891604"/>
			<point x="124" y="12.7697603345"/>
			<point x="124" y="108.2748108396" type="curve" smooth="yes"/>
			<point x="124" y="219.5475381123"/>
			<point x="211" y="324.2748108396"/>
			<point x="331" y="324.2748108396" type="curve" smooth="yes"/>
			<point x="360" y="324.2748108396"/>
			<point x="361" y="311.2748108396"/>
			<point x="382" y="311.2748108396" type="curve" smooth="yes"/>
			<point x="399.1219512195" y="311.2748108396"/>
			<point x="408" y="324.4327055764"/>
			<point x="408" y="341.2748108396" type="curve" smooth="yes"/>
			<point x="408" y="383.7748108396"/>
			<point x="374.5" y="392.2748108396"/>
			<point x="341" y="392.2748108396" type="curve" smooth="yes"/>
			<point x="187" y="392.2748108396"/>
			<point x="56" y="271.2748108396"/>
			<point x="56" y="117.2748108396" type="curve" smooth="yes"/>
			<point x="56" y="-18.7251891604"/>
			<point x="146" y="-111.7251891604"/>
			<point x="266" y="-111.7251891604" type="curve" smooth="yes"/>
			<point x="369" y="-111.7251891604"/>
			<point x="444" y="-69.7251891604"/>
		</contour>
	</outline>
</glyph>
<glyph name="e" format="2">
	<unicode hex="0065"/>
	<advance width="537"/>
	<outline>
		<contour>
			<point x="192" y="335.766029557" type="curve" smooth="yes"/>
			<point x="338" y="335.766029557"/>
			<point x="446" y="400.766029557"/>
			<point x="446" y="508.766029557" type="curve" smooth="yes"/>
			<point x="446" y="603.766029557"/>
			<point x="387.3121387283" y="654.766029557"/>
			<point x="303" y="654.766029557" type="curve" smooth="yes"/>
			<point x="144.8709677419" y="654.766029557"/>
			<point x="45" y="502.766029557"/>
			<point x="45" y="369.766029557" type="curve" smooth="yes"/>
			<point x="45" y="241.766029557"/>
			<point x="107" y="149.766029557"/>
			<point x="249" y="149.766029557" type="curve" smooth="yes"/>
			<point x="365.4788135593" y="149.766029557"/>
			<point x="480" y="225.766029557"/>
			<point x="480" y="273.766029557" type="curve" smooth="yes"/>
			<point x="480" y="293.766029557"/>
			<point x="476" y="302.766029557"/>
			<point x="461" y="302.766029557" type="curve" smooth="yes"/>
			<point x="427" y="302.766029557"/>
			<point x="387" y="214.766029557"/>
			<point x="246" y="214.766029557" type="curve" smooth="yes"/>
			<point x="148.4558823529" y="214.766029557"/>
			<point x="112" y="280.766029557"/>
			<point x="112" y="360.766029557" type="curve" smooth="yes"/>
			<point x="112" y="479.766029557"/>
			<point x="191.1578947368" y="588.766029557"/>
			<point x="300" y="588.766029557" type="curve" smooth="yes"/>
			<point x="358.4430379747" y="588.766029557"/>
			<point x="381" y="562.766029557"/>
			<point x="381" y="512.766029557" type="curve" smooth="yes"/>
			<point x="381" y="441.766029557"/>
			<point x="314.3089005236" y="400.766029557"/>
			<point x="188" y="400.766029557" type="curve" smooth="yes"/>
			<point x="156" y="400.766029557"/>
			<point x="137" y="408.766029557"/>
			<point x="122" y="408.766029557" type="curve" smooth="yes"/>
			<point x="103" y="408.766029557"/>
			<point x="97" y="401.766029557"/>
			<point x="97" y="386.766029557" type="curve" smooth="yes"/>
			<point x="97" y="361.766029557"/>
			<point x="121" y="335.766029557"/>
		</contour>
	</outline>
</glyph>
<glyph name="h" format="2">
	<unicode hex="0068"/>
	<advance width="613"/>
	<outline>
		<contour>
			<point x="520" y="-171.6711323413" type="curve" smooth="yes"/>
			<point x="536.3636363636" y="-171.6711323413"/>
			<point x="550" y="-157.9211323413"/>
			<point x="550" y="-141.6711323413" type="curve" smooth="yes"/>
			<point x="550" y="-129.8249784951"/>
			<point x="545.1546611495" y="-118.9804546403"/>
			<point x="540" y="-108.6711323413" type="curve" smooth="yes"/>
			<point x="520.335124402" y="-73.4813549554"/>
			<point x="509.1992489216" y="-30.063371198"/>
			<point x="496" y="106.3288676587" type="curve" smooth="yes"/>
			<point x="483.0970316562" y="248.2615194401"/>
			<point x="466" y="332.3288676587"/>
			<point x="389" y="332.3288676587" type="curve" smooth="yes"/>
			<point x="306" y="332.3288676587"/>
			<point x="234" y="236.3288676587"/>
			<point x="127" y="-53.6711323413" type="curve"/>
			<point x="145" y="-55.6711323413" type="line"/>
			<point x="141" y="133.3288676587"/>
			<point x="193" y="328.3288676587"/>
			<point x="213" y="482.3288676587" type="curve" smooth="yes"/>
			<point x="228" y="603.3288676587"/>
			<point x="217" y="647.3288676587"/>
			<point x="182" y="648.3288676587" type="curve" smooth="yes"/>
			<point x="162" y="648.3288676587"/>
			<point x="153" y="630.3288676587"/>
			<point x="150" y="611.3288676587" type="curve" smooth="yes"/>
			<point x="145" y="570.3288676587"/>
			<point x="149" y="519.3288676587"/>
			<point x="142" y="463.3288676587" type="curve" smooth="yes"/>
			<point x="126" y="332.3288676587"/>
			<point x="75" y="171.3288676587"/>
			<point x="75" y="-66.6711323413" type="curve" smooth="yes"/>
			<point x="75" y="-141.6711323413"/>
			<point x="96.5384615385" y="-171.6711323413"/>
			<point x="123" y="-171.6711323413" type="curve" smooth="yes"/>
			<point x="144" y="-171.6711323413"/>
			<point x="160" y="-163.6711323413"/>
			<point x="169" y="-133.6711323413" type="curve" smooth="yes"/>
			<point x="242" y="117.3288676587"/>
			<point x="343" y="267.3288676587"/>
			<point x="388" y="267.3288676587" type="curve"/>
			<point x="413" y="230.3288676587"/>
			<point x="424" y="178.3288676587"/>
			<point x="433" y="48.3288676587" type="curve" smooth="yes"/>
			<point x="440.9649161561" y="-65.1711875662"/>
			<point x="480.0823529412" y="-171.6711323413"/>
		</contour>
	</outline>
</glyph>
<glyph name="l" format="2">
	<unicode hex="006C"/>
	<advance width="318"/>
	<image fileName="b.png" xScale="2.580311745" yScale="2.580311745" xOffset="-2454.3109110762" yOffset="-580.570142633" color="0,0,0,0.24109"/>
	<outline>
		<contour>
			<point x="157" y="810.0057910865" type="curve" smooth="yes"/>
			<point x="157" y="737.0057910865"/>
			<point x="129" y="653.0057910865"/>
			<point x="129" y="406.0057910865" type="curve" smooth="yes"/>
			<point x="129" y="185.0057910865"/>
			<point x="157" y="115.0057910865"/>
			<point x="193" y="115.0057910865" type="curve" smooth="yes"/>
			<point x="240.7922077922" y="115.0057910865"/>
			<point x="248" y="143.0057910865"/>
			<point x="273" y="143.0057910865" type="curve" smooth="yes"/>
			<point x="291" y="143.0057910865"/>
			<point x="297" y="131.0057910865"/>
			<point x="297" y="114.0057910865" type="curve" smooth="yes"/>
			<point x="297" y="79.0057910865"/>
			<point x="244" y="48.0057910865"/>
			<point x="195" y="48.0057910865" type="curve" smooth="yes"/>
			<point x="113" y="48.0057910865"/>
			<point x="61" y="92.0057910865"/>
			<point x="61" y="426.0057910865" type="curve" smooth="yes"/>
			<point x="61" y="599.5417910865"/>
			<point x="73" y="695.0057910865"/>
			<point x="89" y="800.0057910865" type="curve" smooth="yes"/>
			<point x="98" y="852.0057910865"/>
			<point x="108.2727272727" y="869.0057910865"/>
			<point x="126" y="869.0057910865" type="curve" smooth="yes"/>
			<point x="144.6" y="869.0057910865"/>
			<point x="157" y="853.0057910865"/>
		</contour>
	</outline>
</glyph>
<glyph name="o" format="2">
	<unicode hex="006F"/>
	<advance width="600"/>
	<outline>
		<contour>
			<point x="315" y="182.0258304471" type="curve" smooth="yes"/>
			<point x="440" y="182.0258304471"/>
			<point x="535" y="293.0258304471"/>
			<point x="535" y="440.0258304471" type="curve" smooth="yes"/>
			<point x="535" y="592.0258304471"/>
			<point x="453" y="688.0258304471"/>
			<point x="321" y="688.0258304471" type="curve" smooth="yes"/>
			<point x="233.7445652174" y="688.0258304471"/>
			<point x="152" y="611.0258304471"/>
			<point x="152" y="557.0258304471" type="curve" smooth="yes"/>
			<point x="152" y="537.0258304471"/>
			<point x="160" y="528.0258304471"/>
			<point x="178" y="528.0258304471" type="curve" smooth="yes"/>
			<point x="204" y="528.0258304471"/>
			<point x="202" y="552.0258304471"/>
			<point x="234" y="584.0258304471" type="curve" smooth="yes"/>
			<point x="259.2368002586" y="609.2626307057"/>
			<point x="284.0909090909" y="623.0258304471"/>
			<point x="329" y="623.0258304471" type="curve" smooth="yes"/>
			<point x="415" y="623.0258304471"/>
			<point x="467" y="556.0258304471"/>
			<point x="467" y="446.0258304471" type="curve" smooth="yes"/>
			<point x="467" y="326.0258304471"/>
			<point x="407" y="248.0258304471"/>
			<point x="312" y="248.0258304471" type="curve" smooth="yes"/>
			<point x="202" y="248.0258304471"/>
			<point x="132" y="326.0258304471"/>
			<point x="132" y="447.0258304471" type="curve" smooth="yes"/>
			<point x="132" y="524.1737594412"/>
			<point x="179.965534545" y="574.0468312373"/>
			<point x="229" y="606.0258304471" type="curve" smooth="yes"/>
			<point x="252" y="621.0258304471"/>
			<point x="260" y="632.0258304471"/>
			<point x="260" y="652.0258304471" type="curve" smooth="yes"/>
			<point x="260" y="668.4606130558"/>
			<point x="250" y="673.0258304471"/>
			<point x="235" y="673.0258304471" type="curve" smooth="yes"/>
			<point x="188" y="673.0258304471"/>
			<point x="65" y="583.0258304471"/>
			<point x="65" y="440.0258304471" type="curve" smooth="yes"/>
			<point x="65" y="290.0258304471"/>
			<point x="169" y="182.0258304471"/>
		</contour>
	</outline>
</glyph>
<glyph name="q" format="2">
	<unicode hex="0071"/>
	<advance width="558"/>
	<outline>
		<contour>
			<point x="429" y="251.5072149682" type="curve" smooth="yes"/>
			<point x="444" y="251.5072149682"/>
			<point x="457" y="265.1009649682"/>
			<point x="457" y="280.5072149682" type="curve" smooth="yes"/>
			<point x="457" y="332.5697149682"/>
			<point x="396" y="399.5072149682"/>
			<point x="309" y="399.5072149682" type="curve" smooth="yes"/>
			<point x="179" y="399.5072149682"/>
			<point x="45" y="230.1489087793"/>
			<point x="45" y="72.5072149682" type="curve" smooth="yes"/>
			<point x="45" y="-34.4725830116"/>
			<point x="98" y="-105.4927850318"/>
			<point x="205" y="-105.4927850318" type="curve" smooth="yes"/>
			<point x="293" y="-105.4927850318"/>
			<point x="387" y="-45.4927850318"/>
			<point x="432" y="59.5072149682" type="curve" smooth="yes"/>
			<point x="464" y="134.5072149682"/>
			<point x="413.7404881503" y="134.3325917038"/>
			<point x="412" y="79.5072149682" type="curve" smooth="yes"/>
			<point x="405.6234225467" y="-97.974190816"/>
			<point x="417" y="-106.4927850318"/>
			<point x="417" y="-309.4927850318" type="curve" smooth="yes"/>
			<point x="417" y="-343.4927850318"/>
			<point x="431" y="-355.4927850318"/>
			<point x="451" y="-355.4927850318" type="curve" smooth="yes"/>
			<point x="483" y="-355.4927850318"/>
			<point x="513.2884501794" y="-323.6153911248"/>
			<point x="550" y="-291.4927850318" type="curve" smooth="yes"/>
			<point x="562" y="-280.4927850318"/>
			<point x="570" y="-264.4927850318"/>
			<point x="570" y="-246.4927850318" type="curve" smooth="yes"/>
			<point x="570" y="-234.334890295"/>
			<point x="561" y="-224.4927850318"/>
			<point x="551" y="-224.4927850318" type="curve" smooth="yes"/>
			<point x="523" y="-224.4927850318"/>
			<point x="502.2837725747" y="-256.3306292748"/>
			<point x="467" y="-276.4927850318" type="curve" smooth="yes"/>
			<point x="444.9099120558" y="-288.8632342806"/>
			<point x="483" y="-311.4927850318"/>
			<point x="483" y="-278.4927850318" type="curve" smooth="yes"/>
			<point x="483" y="-110.2496088531"/>
			<point x="476.0297619408" y="-42.7502270311"/>
			<point x="472" y="127.5072149682" type="curve"/>
			<point x="484.6944123995" y="160.7079858593"/>
			<point x="492" y="196.273172415"/>
			<point x="492" y="228.5072149682" type="curve" smooth="yes"/>
			<point x="492" y="252.9516594126"/>
			<point x="481.2941176471" y="272.5072149682"/>
			<point x="464" y="272.5072149682" type="curve" smooth="yes"/>
			<point x="442" y="272.5072149682"/>
			<point x="430" y="260.5072149682"/>
			<point x="426" y="239.5072149682" type="curve" smooth="yes"/>
			<point x="392" y="65.5072149682"/>
			<point x="306" y="-40.4927850318"/>
			<point x="205" y="-40.4927850318" type="curve" smooth="yes"/>
			<point x="145.2142857143" y="-40.4927850318"/>
			<point x="112" y="-4.4282689028"/>
			<point x="112" y="63.5072149682" type="curve" smooth="yes"/>
			<point x="112" y="193.1072149682"/>
			<point x="213.5153061224" y="333.5072149682"/>
			<point x="309" y="333.5072149682" type="curve" smooth="yes"/>
			<point x="350" y="333.5072149682"/>
			<point x="367" y="316.5072149682"/>
			<point x="395" y="274.5072149682" type="curve" smooth="yes"/>
			<point x="404.0213272539" y="259.8475581807"/>
			<point x="415" y="251.5072149682"/>
		</contour>
	</outline>
</glyph>
<glyph name="s" format="2">
	<unicode hex="0073"/>
	<advance width="485"/>
	<outline>
		<contour>
			<point x="171" y="69.0249937286" type="curve" smooth="yes"/>
			<point x="300" y="69.0249937286"/>
			<point x="422" y="114.0249937286"/>
			<point x="422" y="215.0249937286" type="curve" smooth="yes"/>
			<point x="422" y="364.0249937286"/>
			<point x="148" y="332.0249937286"/>
			<point x="131" y="425.0249937286" type="curve"/>
			<point x="162" y="482.0249937286"/>
			<point x="230.0769230769" y="511.0249937286"/>
			<point x="315" y="511.0249937286" type="curve" smooth="yes"/>
			<point x="334" y="511.0249937286"/>
			<point x="346" y="509.0249937286"/>
			<point x="352" y="509.0249937286" type="curve" smooth="yes"/>
			<point x="372" y="509.0249937286"/>
			<point x="382" y="519.0249937286"/>
			<point x="382" y="534.0249937286" type="curve" smooth="yes"/>
			<point x="382" y="551.2068119104"/>
			<point x="355.9989674882" y="575.0250177405"/>
			<point x="313" y="576.0249937286" type="curve" smooth="yes"/>
			<point x="196" y="579.0249937286"/>
			<point x="72" y="505.0249937286"/>
			<point x="72" y="423.0249937286" type="curve" smooth="yes"/>
			<point x="72" y="278.0249937286"/>
			<point x="337" y="310.0249937286"/>
			<point x="360" y="212.0249937286" type="curve"/>
			<point x="334.2483961206" y="154.5791081515"/>
			<point x="258" y="134.0249937286"/>
			<point x="167" y="134.0249937286" type="curve" smooth="yes"/>
			<point x="96" y="134.0249937286"/>
			<point x="102" y="158.0249937286"/>
			<point x="81" y="158.0249937286" type="curve" smooth="yes"/>
			<point x="62" y="158.0249937286"/>
			<point x="52" y="145.0249937286"/>
			<point x="52" y="129.0249937286" type="curve" smooth="yes"/>
			<point x="52" y="101.0249937286"/>
			<point x="94" y="69.0249937286"/>
		</contour>
	</outline>
</glyph>
<glyph name="z" format="2">
	<unicode hex="007A"/>
	<advance width="603"/>
	<image fileName="b.png" xScale="2.580311745" yScale="2.580311745" xOffset="-7272.5472265012" yOffset="-580.570142633" color="0,0,0,0.24109"/>
	<outline>
		<contour>
			<point x="106" y="377.4942904133" type="curve" smooth="yes"/>
			<point x="166" y="396.4942904133"/>
			<point x="249" y="411.4942904133"/>
			<point x="315" y="411.4942904133" type="curve" smooth="yes"/>
			<point x="467" y="411.4942904133"/>
			<point x="513" y="358.4942904133"/>
			<point x="513" y="305.4942904133" type="curve" smooth="yes"/>
			<point x="513" y="223.4942904133"/>
			<point x="417" y="117.4942904133"/>
			<point x="123" y="-10.5057095867" type="curve"/>
			<point x="133" y="9.4942904133" type="line"/>
			<point x="149" y="-23.5057095867"/>
			<point x="175" y="-28.5057095867"/>
			<point x="223" y="-28.5057095867" type="curve" smooth="yes"/>
			<point x="293" y="-28.5057095867"/>
			<point x="381" y="-16.5057095867"/>
			<point x="456" y="-16.5057095867" type="curve" smooth="yes"/>
			<point x="503" y="-16.5057095867"/>
			<point x="534" y="-32.5057095867"/>
			<point x="534" y="-54.5057095867" type="curve" smooth="yes"/>
			<point x="534" y="-70.5057095867"/>
			<point x="520" y="-84.5057095867"/>
			<point x="498" y="-84.5057095867" type="curve" smooth="yes"/>
			<point x="421" y="-84.5057095867"/>
			<point x="304" y="-94.5057095867"/>
			<point x="213" y="-94.5057095867" type="curve" smooth="yes"/>
			<point x="106" y="-94.5057095867"/>
			<point x="74" y="-45.5057095867"/>
			<point x="74" y="-2.5057095867" type="curve" smooth="yes"/>
			<point x="74" y="21.4942904133"/>
			<point x="84" y="45.4942904133"/>
			<point x="117" y="59.4942904133" type="curve" smooth="yes"/>
			<point x="332" y="152.4942904133"/>
			<point x="461" y="247.4942904133"/>
			<point x="451" y="334.4942904133" type="curve"/>
			<point x="468" y="287.4942904133" type="line"/>
			<point x="439" y="330.4942904133"/>
			<point x="399" y="345.4942904133"/>
			<point x="331" y="345.4942904133" type="curve" smooth="yes"/>
			<point x="217" y="345.4942904133"/>
			<point x="148" y="311.4942904133"/>
			<point x="108" y="311.4942904133" type="curve" smooth="yes"/>
			<point x="95" y="311.4942904133"/>
			<point x="81" y="328.4942904133"/>
			<point x="81" y="347.4942904133" type="curve" smooth="yes"/>
			<point x="81" y="364.4942904133"/>
			<point x="87" y="371.4942904133"/>
		</contour>
	</outline>
</glyph>
<glyph name="quoteleft" format="2">
	<unicode hex="2018"/>
	<advance width="212"/>
	<image fileName="quoteleft.png" xScale="2.7154088417" yScale="2.7154088417" xOffset="-110.4273808669" yOffset="-445.4316255776" color="0,0,0,0.31832"/>
	<outline>
		<contour>
			<point x="213" y="679.4641891784" type="curve" smooth="yes"/>
			<point x="195" y="679.4641891784"/>
			<point x="182" y="673.4641891784"/>
			<point x="153" y="636.4641891784" type="curve" smooth="yes"/>
			<point x="97" y="564.4641891784"/>
			<point x="60" y="471.4641891784"/>
			<point x="60" y="397.4641891784" type="curve" smooth="yes"/>
			<point x="60" y="359.4641891784"/>
			<point x="77" y="325.4641891784"/>
			<point x="102" y="325.4641891784" type="curve" smooth="yes"/>
			<point x="121" y="325.4641891784"/>
			<point x="131" y="339.4641891784"/>
			<point x="143" y="394.4641891784" type="curve" smooth="yes"/>
			<point x="155" y="450.4641891784"/>
			<point x="176" y="516.4641891784"/>
			<point x="232" y="583.4641891784" type="curve" smooth="yes"/>
			<point x="253" y="608.4641891784"/>
			<point x="256" y="616.4641891784"/>
			<point x="256" y="625.4641891784" type="curve" smooth="yes"/>
			<point x="257" y="649.4641891784"/>
			<point x="241" y="679.4641891784"/>
		</contour>
	</outline>
</glyph>
<glyph name="quotedblright" format="2">
	<unicode hex="201D"/>
	<advance width="435"/>
	<outline>
		<contour>
			<point x="190" y="958.0289879872" type="curve" smooth="yes"/>
			<point x="171" y="958.0289879872"/>
			<point x="160" y="950.0289879872"/>
			<point x="136" y="906.0289879872" type="curve" smooth="yes"/>
			<point x="91" y="824.0289879872"/>
			<point x="55" y="708.0289879872"/>
			<point x="55" y="630.0289879872" type="curve" smooth="yes"/>
			<point x="55" y="587.0289879872"/>
			<point x="72" y="561.0289879872"/>
			<point x="97" y="561.0289879872" type="curve" smooth="yes"/>
			<point x="116" y="561.0289879872"/>
			<point x="125" y="573.0289879872"/>
			<point x="135" y="620.0289879872" type="curve" smooth="yes"/>
			<point x="148" y="680.0289879872"/>
			<point x="152" y="746.0289879872"/>
			<point x="208" y="836.0289879872" type="curve" smooth="yes"/>
			<point x="237" y="883.0289879872"/>
			<point x="240" y="894.0289879872"/>
			<point x="240" y="907.0289879872" type="curve" smooth="yes"/>
			<point x="240" y="930.0289879872"/>
			<point x="213" y="958.0289879872"/>
		</contour>
		<contour>
			<point x="370" y="898.0289879872" type="curve" smooth="yes"/>
			<point x="351" y="898.0289879872"/>
			<point x="340" y="890.0289879872"/>
			<point x="316" y="846.0289879872" type="curve" smooth="yes"/>
			<point x="281.6401851185" y="783.4177697586"/>
			<point x="255" y="698.2463792915"/>
			<point x="255" y="640.0289879872" type="curve" smooth="yes"/>
			<point x="255" y="597.0289879872"/>
			<point x="272" y="571.0289879872"/>
			<point x="297" y="571.0289879872" type="curve" smooth="yes"/>
			<point x="316" y="571.0289879872"/>
			<point x="325" y="583.0289879872"/>
			<point x="335" y="630.0289879872" type="curve" smooth="yes"/>
			<point x="343.8854952264" y="671.038965955"/>
			<point x="348.0059341639" y="711.7528107507"/>
			<point x="388" y="776.0289879872" type="curve" smooth="yes"/>
			<point x="417" y="823.0289879872"/>
			<point x="420" y="834.0289879872"/>
			<point x="420" y="847.0289879872" type="curve" smooth="yes"/>
			<point x="420" y="870.0289879872"/>
			<point x="393" y="898.0289879872"/>
		</contour>
	</outline>
</glyph>
<glyph name="dagger" format="2">
	<unicode hex="2020"/>
	<advance width="538"/>
	<outline>
		<contour>
			<point x="317" y="727.3237657714" type="curve" smooth="yes"/>
			<point x="317" y="617.3237657714"/>
			<point x="305" y="486.3237657714"/>
			<point x="305" y="281.3237657714" type="curve" smooth="yes"/>
			<point x="305" y="25.3237657714"/>
			<point x="320" y="-7.6762342286"/>
			<point x="320" y="-140.6762342286" type="curve" smooth="yes"/>
			<point x="320" y="-175.6762342286"/>
			<point x="302" y="-185.6762342286"/>
			<point x="289" y="-185.6762342286" type="curve" smooth="yes"/>
			<point x="274" y="-185.6762342286"/>
			<point x="262" y="-171.6762342286"/>
			<point x="259" y="-149.6762342286" type="curve" smooth="yes"/>
			<point x="234" y="33.3237657714"/>
			<point x="237" y="151.3237657714"/>
			<point x="237" y="295.3237657714" type="curve" smooth="yes"/>
			<point x="237" y="495.3237657714"/>
			<point x="249" y="644.3237657714"/>
			<point x="249" y="749.3237657714" type="curve" smooth="yes"/>
			<point x="249" y="768.3237657714"/>
			<point x="259" y="786.3237657714"/>
			<point x="277" y="786.3237657714" type="curve" smooth="yes"/>
			<point x="297" y="786.3237657714"/>
			<point x="317" y="765.3237657714"/>
		</contour>
		<contour>
			<point x="86" y="461.3237657714" type="curve" smooth="yes"/>
			<point x="57" y="453.3237657714"/>
			<point x="41" y="469.3237657714"/>
			<point x="41" y="488.3237657714" type="curve" smooth="yes"/>
			<point x="42" y="512.3237657714"/>
			<point x="50" y="527.3237657714"/>
			<point x="102" y="535.3237657714" type="curve" smooth="yes"/>
			<point x="216" y="555.3237657714"/>
			<point x="354" y="569.3237657714"/>
			<point x="462" y="569.3237657714" type="curve" smooth="yes"/>
			<point x="488" y="569.3237657714"/>
			<point x="509" y="553.3237657714"/>
			<point x="509" y="534.3237657714" type="curve" smooth="yes"/>
			<point x="509" y="515.3237657714"/>
			<point x="499" y="508.3237657714"/>
			<point x="474" y="506.3237657714" type="curve" smooth="yes"/>
			<point x="299" y="492.3237657714"/>
			<point x="197" y="486.3237657714"/>
		</contour>
	</outline>
</glyph>
<glyph name="minute" format="2">
	<unicode hex="2032"/>
	<advance width="259"/>
	<outline>
		<contour>
			<point x="107" y="511.1716463395" type="curve" smooth="yes"/>
			<point x="124" y="511.1716463395"/>
			<point x="135" y="521.1716463395"/>
			<point x="147" y="545.1716463395" type="curve" smooth="yes"/>
			<point x="173" y="601.1716463395"/>
			<point x="190" y="688.1716463395"/>
			<point x="190" y="747.1716463395" type="curve" smooth="yes"/>
			<point x="190" y="790.1716463395"/>
			<point x="170" y="803.1716463395"/>
			<point x="149" y="803.1716463395" type="curve" smooth="yes"/>
			<point x="128" y="803.1716463395"/>
			<point x="118" y="790.1716463395"/>
			<point x="118" y="761.1716463395" type="curve" smooth="yes"/>
			<point x="118" y="593.1716463395"/>
			<point x="83" y="577.1716463395"/>
			<point x="83" y="535.1716463395" type="curve" smooth="yes"/>
			<point x="83" y="518.1716463395"/>
			<point x="94" y="511.1716463395"/>
		</contour>
	</outline>
</glyph>
